<?xml version="1.0" encoding="UTF-8"?>
<svg xmlns="http://www.w3.org/2000/svg" width="500" height="750" viewBox="0 0 500 750" preserveAspectRatio="xMidYMid meet">
  <!-- Logo ATLAS en Azul Atlas -->
  <g transform="translate(10,740) scale(0.1,-0.1)" fill="#2D4B94">
    <!-- Parte superior izquierda -->
    <path d="M210 4442 l0 -337 73 -85 c698 -811 882 -1022 904 -1039 24 -20 39
    -21 244 -21 l219 0 0 -314 0 -315 28 -19 c15 -10 124 -72 242 -137 118 -64
    270 -148 336 -186 67 -38 128 -67 136 -64 8 3 30 34 50 68 128 222 228 393
    312 537 53 90 96 170 96 175 0 6 -148 161 -329 345 l-330 333 -97 13 c-543 75
    -1041 383 -1337 826 -105 157 -191 338 -243 511 l-15 47 -144 0 -145 0 0 -338z"/>
    
    <!-- Parte superior derecha -->
    <path d="M4215 4698 c-179 -546 -561 -956 -1101 -1182 -164 -68 -420 -126
    -627 -142 -48 -4 -89 -10 -92 -14 -5 -9 523 -534 553 -549 21 -11 59 7 411
    194 330 176 396 214 439 258 28 29 206 234 396 456 l346 404 0 329 0 328 -149
    0 -149 0 -27 -82z"/>
    
    <!-- Parte central izquierda -->
    <path d="M1214 2816 c-17 -8 -43 -29 -57 -47 -32 -43 -747 -1248 -747 -1260 0
    -5 398 -9 925 -9 l925 0 0 130 c0 199 -3 202 -245 335 -88 48 -235 131 -327
    183 l-168 95 -2 291 -3 291 -135 2 c-97 2 -144 -1 -166 -11z"/>
    
    <!-- Parte central derecha -->
    <path d="M2897 2503 c-65 -105 -317 -543 -317 -552 0 -14 40 -14 305 4 331 22
    296 28 351 -57 26 -40 85 -136 132 -213 46 -77 93 -150 105 -162 l20 -23 429
    0 c235 0 428 3 428 8 0 4 -60 50 -133 102 -204 147 -208 151 -392 499 -89 168
    -178 323 -200 348 -70 81 -78 83 -412 83 l-293 0 -23 -37z"/>
    
    <!-- Letra S -->
    <path d="M4185 1075 c-70 -26 -137 -85 -170 -150 -26 -51 -30 -69 -30 -139 0
    -89 23 -151 74 -200 47 -45 173 -102 314 -141 159 -44 197 -69 197 -127 0 -65
    -67 -108 -167 -108 -113 0 -181 38 -207 115 l-14 40 -114 0 -113 0 3 -40 c9
    -141 87 -237 242 -296 39 -15 86 -23 160 -26 220 -10 369 61 435 208 36 80 33
    178 -6 254 -47 93 -131 140 -349 197 -63 16 -132 40 -153 51 -135 75 -24 212
    143 176 59 -13 101 -44 124 -94 l17 -35 111 0 111 0 -7 47 c-14 102 -78 194
    -176 252 -43 25 -51 26 -215 28 -129 2 -180 -1 -210 -12z"/>
    
    <!-- Letra A -->
    <path d="M386 1038 c-9 -24 -99 -259 -200 -523 -101 -264 -180 -484 -176 -488
    4 -4 62 -6 131 -5 l124 3 39 103 40 102 201 0 202 0 39 -102 39 -103 124 -3
    c69 -1 127 1 131 5 6 6 -192 539 -366 986 l-26 67 -143 0 -143 0 -16 -42z
    m224 -414 c33 -98 60 -182 60 -186 0 -4 -57 -8 -126 -8 -97 0 -125 3 -121 13
    2 6 31 92 63 189 32 97 60 176 61 174 2 -2 30 -84 63 -182z"/>
    
    <!-- Letra T -->
    <path d="M1010 970 l0 -110 155 0 155 0 2 -417 3 -418 123 -3 122 -3 0 415 0
    415 158 3 157 3 3 113 3 112 -441 0 -440 0 0 -110z"/>
    
    <!-- Letra L -->
    <path d="M2060 550 l0 -530 335 0 335 0 0 110 0 110 -215 0 -215 0 0 420 0
    420 -120 0 -120 0 0 -530z"/>
    
    <!-- Letra A -->
    <path d="M3030 573 c-107 -279 -196 -518 -198 -531 l-4 -23 128 3 129 3 39
    103 39 102 200 -2 201 -3 35 -90 c20 -50 40 -96 44 -103 11 -17 257 -17 257 0
    0 6 -89 245 -197 530 l-197 518 -141 0 -142 0 -193 -507z m460 -135 c0 -5 -56
    -8 -125 -8 -69 0 -125 3 -125 7 0 4 28 92 62 195 l63 188 62 -187 c35 -103 63
    -191 63 -195z"/>
  </g>
  
  <!-- Globo terráqueo en Verde Modular -->
  <g transform="translate(40, -1) scale(13)">
    <g fill="#26A69A">
      <path d="M16,3A13.77,13.77,0,0,0,2,16.5,13.77,13.77,0,0,0,16,30,13.77,13.77,0,0,0,30,16.5,13.77,13.77,0,0,0,16,3ZM27.51,13.26a15.68,15.68,0,0,0-6-2.25A17,17,0,0,0,19.6,5.53,11.8,11.8,0,0,1,27.51,13.26ZM16,28c-1.15,0-2.61-2.08-3.41-5.69A32.17,32.17,0,0,0,16,22.5a32.17,32.17,0,0,0,3.41-.19C18.61,25.92,17.15,28,16,28Zm0-7.5a31.16,31.16,0,0,1-3.77-.23,31,31,0,0,1,0-7.54,31,31,0,0,1,7.54,0A31.16,31.16,0,0,1,20,16.5a31.16,31.16,0,0,1-.23,3.77A31.16,31.16,0,0,1,16,20.5Zm-5.81-.59c-3.61-.8-5.69-2.26-5.69-3.41s2.08-2.61,5.69-3.41a30.7,30.7,0,0,0,0,6.82ZM16,5c1.15,0,2.61,2.08,3.41,5.69A32.17,32.17,0,0,0,16,10.5a32.17,32.17,0,0,0-3.41.19C13.39,7.08,14.85,5,16,5Zm5.81,8.09c3.61.8,5.69,2.26,5.69,3.41s-2.08,2.61-5.69,3.41A32.17,32.17,0,0,0,22,16.5,32.17,32.17,0,0,0,21.81,13.09ZM12.4,5.53A17,17,0,0,0,10.51,11a15.68,15.68,0,0,0-6,2.25A11.8,11.8,0,0,1,12.4,5.53ZM4.49,19.74a15.68,15.68,0,0,0,6,2.25,17,17,0,0,0,1.89,5.48A11.8,11.8,0,0,1,4.49,19.74ZM19.6,27.47A17,17,0,0,0,21.49,22a15.68,15.68,0,0,0,6-2.25A11.8,11.8,0,0,1,19.6,27.47Z"/>
    </g>
    
    <!-- Cuadrícula como elemento decorativo con transparencia -->
    <g fill="#26A69A" opacity="0.3">
      <path d="M16,3.5A13,13,0,0,0,3,16.5,13,13,0,0,0,16,29.5,13,13,0,0,0,29,16.5,13,13,0,0,0,16,3.5ZM16,4.5A12,12,0,0,1,28,16.5,12,12,0,0,1,16,28.5A12,12,0,0,1,4,16.5,12,12,0,0,1,16,4.5Z"/>
      <path d="M16,7.5A9,9,0,0,0,7,16.5,9,9,0,0,0,16,25.5,9,9,0,0,0,25,16.5,9,9,0,0,0,16,7.5ZM16,8.5A8,8,0,0,1,24,16.5,8,8,0,0,1,16,24.5A8,8,0,0,1,8,16.5,8,8,0,0,1,16,8.5Z"/>
      <path d="M3,16.5h26M16,3.5v26"/>
    </g>
  </g>
</svg>