<?xml version="1.0" encoding="UTF-8"?>
<svg xmlns="http://www.w3.org/2000/svg" viewBox="0 0 580 580" preserveAspectRatio="xMidYMid meet">
  <!-- Grupo principal del logo - Se puede mover como un conjunto -->
  <g id="logo-completo" transform="translate(35, -40)">
    <!-- Logo en Azul Atlas (sin el nombre) -->
    <g id="logo-atlas" transform="translate(10, 760) scale(0.1,-0.1)" fill="#2D4B94">
      <!-- Parte superior izquierda -->
      <path d="M210 4442 l0 -337 73 -85 c698 -811 882 -1022 904 -1039 24 -20 39
      -21 244 -21 l219 0 0 -314 0 -315 28 -19 c15 -10 124 -72 242 -137 118 -64
      270 -148 336 -186 67 -38 128 -67 136 -64 8 3 30 34 50 68 128 222 228 393
      312 537 53 90 96 170 96 175 0 6 -148 161 -329 345 l-330 333 -97 13 c-543 75
      -1041 383 -1337 826 -105 157 -191 338 -243 511 l-15 47 -144 0 -145 0 0 -338z"/>
      
      <!-- Parte superior derecha -->
      <path d="M4215 4698 c-179 -546 -561 -956 -1101 -1182 -164 -68 -420 -126
      -627 -142 -48 -4 -89 -10 -92 -14 -5 -9 523 -534 553 -549 21 -11 59 7 411
      194 330 176 396 214 439 258 28 29 206 234 396 456 l346 404 0 329 0 328 -149
      0 -149 0 -27 -82z"/>
      
      <!-- Parte central izquierda -->
      <path d="M1214 2816 c-17 -8 -43 -29 -57 -47 -32 -43 -747 -1248 -747 -1260 0
      -5 398 -9 925 -9 l925 0 0 130 c0 199 -3 202 -245 335 -88 48 -235 131 -327
      183 l-168 95 -2 291 -3 291 -135 2 c-97 2 -144 -1 -166 -11z"/>
      
      <!-- Parte central derecha -->
      <path d="M2897 2503 c-65 -105 -317 -543 -317 -552 0 -14 40 -14 305 4 331 22
      296 28 351 -57 26 -40 85 -136 132 -213 46 -77 93 -150 105 -162 l20 -23 429
      0 c235 0 428 3 428 8 0 4 -60 50 -133 102 -204 147 -208 151 -392 499 -89 168
      -178 323 -200 348 -70 81 -78 83 -412 83 l-293 0 -23 -37z"/>
    </g>
    
    <!-- Globo terráqueo en Verde Modular -->
    <g id="globo-terraqueo" transform="translate(40, 8) scale(13)">
      <g fill="#26A69A">
        <path d="M16,3A13.77,13.77,0,0,0,2,16.5,13.77,13.77,0,0,0,16,30,13.77,13.77,0,0,0,30,16.5,13.77,13.77,0,0,0,16,3ZM27.51,13.26a15.68,15.68,0,0,0-6-2.25A17,17,0,0,0,19.6,5.53,11.8,11.8,0,0,1,27.51,13.26ZM16,28c-1.15,0-2.61-2.08-3.41-5.69A32.17,32.17,0,0,0,16,22.5a32.17,32.17,0,0,0,3.41-.19C18.61,25.92,17.15,28,16,28Zm0-7.5a31.16,31.16,0,0,1-3.77-.23,31,31,0,0,1,0-7.54,31,31,0,0,1,7.54,0A31.16,31.16,0,0,1,20,16.5a31.16,31.16,0,0,1-.23,3.77A31.16,31.16,0,0,1,16,20.5Zm-5.81-.59c-3.61-.8-5.69-2.26-5.69-3.41s2.08-2.61,5.69-3.41a30.7,30.7,0,0,0,0,6.82ZM16,5c1.15,0,2.61,2.08,3.41,5.69A32.17,32.17,0,0,0,16,10.5a32.17,32.17,0,0,0-3.41.19C13.39,7.08,14.85,5,16,5Zm5.81,8.09c3.61.8,5.69,2.26,5.69,3.41s-2.08,2.61-5.69,3.41A32.17,32.17,0,0,0,22,16.5,32.17,32.17,0,0,0,21.81,13.09ZM12.4,5.53A17,17,0,0,0,10.51,11a15.68,15.68,0,0,0-6,2.25A11.8,11.8,0,0,1,12.4,5.53ZM4.49,19.74a15.68,15.68,0,0,0,6,2.25,17,17,0,0,0,1.89,5.48A11.8,11.8,0,0,1,4.49,19.74ZM19.6,27.47A17,17,0,0,0,21.49,22a15.68,15.68,0,0,0,6-2.25A11.8,11.8,0,0,1,19.6,27.47Z"/>
      </g>
      
      <!-- Cuadrícula como elemento decorativo con transparencia -->
      <g fill="#26A69A" opacity="0.3">
        <path d="M16,3.5A13,13,0,0,0,3,16.5,13,13,0,0,0,16,29.5,13,13,0,0,0,29,16.5,13,13,0,0,0,16,3.5ZM16,4.5A12,12,0,0,1,28,16.5,12,12,0,0,1,16,28.5A12,12,0,0,1,4,16.5,12,12,0,0,1,16,4.5Z"/>
        <path d="M16,7.5A9,9,0,0,0,7,16.5,9,9,0,0,0,16,25.5,9,9,0,0,0,25,16.5,9,9,0,0,0,16,7.5ZM16,8.5A8,8,0,0,1,24,16.5,8,8,0,0,1,16,24.5A8,8,0,0,1,8,16.5,8,8,0,0,1,16,8.5Z"/>
        <path d="M3,16.5h26M16,3.5v26"/>
      </g>
    </g>
  </g>
</svg>